# xmcd
#
# Track frame offsets: 
#        150
#        17388
#        34660
#        54820
#        71960
#        85675
#        103575
#        123638
#        141208
#        154618
#
# Disc length: 2312 seconds
#
# Revision: 6
# Processed by: cddbd v1.5PL3 Copyright (c) Steve Scherf et al.
# Submitted via: ExactAudioCopy v0.95a3
#
DISCID=7909060a
DTITLE=Alan Jackson - High Mileage
DYEAR=1998
DGENRE=Country
TTITLE0=Right On The Money
TTITLE1=Gone Crazy
TTITLE2=Little Man
TTITLE3=What A Day Yesterday Was
TTITLE4=Hurtin' Comes Easy
TTITLE5=I'll Go On Loving You
TTITLE6=Another Good Reason
TTITLE7=A Woman's Love
TTITLE8=Dancin' All Around It
TTITLE9=Amarillo
EXTD=
EXTT0=
EXTT1=
EXTT2=
EXTT3=
EXTT4=
EXTT5=
EXTT6=
EXTT7=
EXTT8=
EXTT9=
PLAYORDER=
